<svg xmlns="http://www.w3.org/2000/svg" viewBox="0 0 512 512" fill="none">
  <rect width="512" height="512" rx="120" fill="#eef2ec"/>
  <path d="M256 78c71.8 0 130 58.2 130 130 0 92.2-96.8 186.9-119.6 207.9a15.8 15.8 0 0 1-20.8 0C222.8 394.9 126 300.2 126 208 126 136.2 184.2 78 256 78Z" fill="#8c5c3c"/>
  <circle cx="256" cy="208" r="58" fill="#ffffff"/>
  <path d="M257 173c19.3 0 35 15.7 35 35s-15.7 35-35 35-35-15.7-35-35 15.7-35 35-35Zm0-57 14.2 21.8 25.4-7.2-3.8 25.9 23.5 11.5-20.7 16 4.6 25.8-24.9-9-19.7 17.4-2.8-26.1-22-13.9 23.2-10.4 5-25.7 17.9 19.1L257 116Z" fill="#2d6c55" opacity=".18"/>
</svg>
